<?xml version="1.0" encoding="utf-8" standalone="no"?>
<!DOCTYPE svg PUBLIC "-//W3C//DTD SVG 1.1//EN"
  "http://www.w3.org/Graphics/SVG/1.1/DTD/svg11.dtd">
<svg height="956.199375pt" version="1.1" viewBox="0 0 1764.66625 956.199375" width="1764.66625pt" xmlns="http://www.w3.org/2000/svg" xmlns:xlink="http://www.w3.org/1999/xlink">
 <metadata>
  <rdf:RDF xmlns:cc="http://creativecommons.org/ns#" xmlns:dc="http://purl.org/dc/elements/1.1/" xmlns:rdf="http://www.w3.org/1999/02/22-rdf-syntax-ns#">
   <cc:Work>
    <dc:type rdf:resource="http://purl.org/dc/dcmitype/StillImage"/>
    <dc:date>2021-11-29T11:53:34.044163</dc:date>
    <dc:format>image/svg+xml</dc:format>
    <dc:creator>
     <cc:Agent>
      <dc:title>Matplotlib v3.4.2, https://matplotlib.org/</dc:title>
     </cc:Agent>
    </dc:creator>
   </cc:Work>
  </rdf:RDF>
 </metadata>
 <defs>
  <style type="text/css">*{stroke-linecap:butt;stroke-linejoin:round;}</style>
 </defs>
 <g id="figure_1">
  <g id="patch_1">
   <path d="M 0 956.199375 
L 1764.66625 956.199375 
L 1764.66625 0 
L 0 0 
z
" style="fill:#ffffff;"/>
  </g>
  <g id="axes_1">
   <g id="patch_2">
    <path d="M 83.46625 887.673125 
L 1757.46625 887.673125 
L 1757.46625 56.073125 
L 83.46625 56.073125 
z
" style="fill:#ffffff;"/>
   </g>
   <g id="matplotlib.axis_1">
    <g id="xtick_1">
     <g id="line2d_1">
      <defs>
       <path d="M 0 0 
L 0 3.5 
" id="mc33c880944" style="stroke:#000000;stroke-width:0.8;"/>
      </defs>
      <g>
       <use style="stroke:#000000;stroke-width:0.8;" x="143.367604" xlink:href="#mc33c880944" y="887.673125"/>
      </g>
     </g>
    </g>
    <g id="xtick_2">
     <g id="line2d_2">
      <g>
       <use style="stroke:#000000;stroke-width:0.8;" x="224.31538" xlink:href="#mc33c880944" y="887.673125"/>
      </g>
     </g>
     <g id="text_1">
      <!-- 5 -->
      <g transform="translate(216.68038 912.909375)scale(0.24 -0.24)">
       <defs>
        <path d="M 3219 4666 
L 3219 4153 
L 1081 4153 
L 1081 2816 
Q 1244 2928 1461 2984 
Q 1678 3041 1947 3041 
Q 2703 3041 3140 2622 
Q 3578 2203 3578 1478 
Q 3578 738 3136 323 
Q 2694 -91 1894 -91 
Q 1572 -91 1234 -12 
Q 897 66 544 225 
L 544 1131 
L 897 1131 
Q 925 688 1179 453 
Q 1434 219 1894 219 
Q 2388 219 2653 544 
Q 2919 869 2919 1478 
Q 2919 2084 2655 2407 
Q 2391 2731 1894 2731 
Q 1613 2731 1398 2631 
Q 1184 2531 1019 2322 
L 750 2322 
L 750 4666 
L 3219 4666 
z
" id="DejaVuSerif-35" transform="scale(0.015625)"/>
       </defs>
       <use xlink:href="#DejaVuSerif-35"/>
      </g>
     </g>
    </g>
    <g id="xtick_3">
     <g id="line2d_3">
      <g>
       <use style="stroke:#000000;stroke-width:0.8;" x="305.263155" xlink:href="#mc33c880944" y="887.673125"/>
      </g>
     </g>
     <g id="text_2">
      <!-- 10 -->
      <g transform="translate(289.993155 912.909375)scale(0.24 -0.24)">
       <defs>
        <path d="M 909 0 
L 909 331 
L 1722 331 
L 1722 4213 
L 781 3603 
L 781 4013 
L 1919 4750 
L 2350 4750 
L 2350 331 
L 3163 331 
L 3163 0 
L 909 0 
z
" id="DejaVuSerif-31" transform="scale(0.015625)"/>
        <path d="M 2034 219 
Q 2513 219 2750 744 
Q 2988 1269 2988 2328 
Q 2988 3391 2750 3916 
Q 2513 4441 2034 4441 
Q 1556 4441 1318 3916 
Q 1081 3391 1081 2328 
Q 1081 1269 1318 744 
Q 1556 219 2034 219 
z
M 2034 -91 
Q 1275 -91 848 546 
Q 422 1184 422 2328 
Q 422 3475 848 4112 
Q 1275 4750 2034 4750 
Q 2797 4750 3222 4112 
Q 3647 3475 3647 2328 
Q 3647 1184 3222 546 
Q 2797 -91 2034 -91 
z
" id="DejaVuSerif-30" transform="scale(0.015625)"/>
       </defs>
       <use xlink:href="#DejaVuSerif-31"/>
       <use x="63.623047" xlink:href="#DejaVuSerif-30"/>
      </g>
     </g>
    </g>
    <g id="xtick_4">
     <g id="line2d_4">
      <g>
       <use style="stroke:#000000;stroke-width:0.8;" x="386.210931" xlink:href="#mc33c880944" y="887.673125"/>
      </g>
     </g>
     <g id="text_3">
      <!-- 15 -->
      <g transform="translate(370.940931 912.909375)scale(0.24 -0.24)">
       <use xlink:href="#DejaVuSerif-31"/>
       <use x="63.623047" xlink:href="#DejaVuSerif-35"/>
      </g>
     </g>
    </g>
    <g id="xtick_5">
     <g id="line2d_5">
      <g>
       <use style="stroke:#000000;stroke-width:0.8;" x="467.158706" xlink:href="#mc33c880944" y="887.673125"/>
      </g>
     </g>
     <g id="text_4">
      <!-- 20 -->
      <g transform="translate(451.888706 912.909375)scale(0.24 -0.24)">
       <defs>
        <path d="M 819 3553 
L 469 3553 
L 469 4384 
Q 803 4563 1142 4656 
Q 1481 4750 1806 4750 
Q 2534 4750 2956 4397 
Q 3378 4044 3378 3438 
Q 3378 2753 2422 1800 
Q 2347 1728 2309 1691 
L 1131 513 
L 3078 513 
L 3078 1088 
L 3444 1088 
L 3444 0 
L 434 0 
L 434 341 
L 1850 1753 
Q 2319 2222 2519 2614 
Q 2719 3006 2719 3438 
Q 2719 3909 2473 4175 
Q 2228 4441 1797 4441 
Q 1350 4441 1106 4219 
Q 863 3997 819 3553 
z
" id="DejaVuSerif-32" transform="scale(0.015625)"/>
       </defs>
       <use xlink:href="#DejaVuSerif-32"/>
       <use x="63.623047" xlink:href="#DejaVuSerif-30"/>
      </g>
     </g>
    </g>
    <g id="xtick_6">
     <g id="line2d_6">
      <g>
       <use style="stroke:#000000;stroke-width:0.8;" x="548.106482" xlink:href="#mc33c880944" y="887.673125"/>
      </g>
     </g>
     <g id="text_5">
      <!-- 25 -->
      <g transform="translate(532.836482 912.909375)scale(0.24 -0.24)">
       <use xlink:href="#DejaVuSerif-32"/>
       <use x="63.623047" xlink:href="#DejaVuSerif-35"/>
      </g>
     </g>
    </g>
    <g id="xtick_7">
     <g id="line2d_7">
      <g>
       <use style="stroke:#000000;stroke-width:0.8;" x="629.054258" xlink:href="#mc33c880944" y="887.673125"/>
      </g>
     </g>
     <g id="text_6">
      <!-- 30 -->
      <g transform="translate(613.784258 912.909375)scale(0.24 -0.24)">
       <defs>
        <path d="M 622 4469 
Q 988 4606 1323 4678 
Q 1659 4750 1953 4750 
Q 2638 4750 3022 4454 
Q 3406 4159 3406 3634 
Q 3406 3213 3140 2930 
Q 2875 2647 2388 2547 
Q 2963 2466 3280 2130 
Q 3597 1794 3597 1259 
Q 3597 606 3158 257 
Q 2719 -91 1894 -91 
Q 1528 -91 1179 -12 
Q 831 66 488 225 
L 488 1131 
L 838 1131 
Q 869 681 1141 450 
Q 1413 219 1906 219 
Q 2384 219 2661 495 
Q 2938 772 2938 1253 
Q 2938 1803 2653 2086 
Q 2369 2369 1819 2369 
L 1522 2369 
L 1522 2688 
L 1678 2688 
Q 2225 2688 2498 2914 
Q 2772 3141 2772 3597 
Q 2772 4006 2547 4223 
Q 2322 4441 1900 4441 
Q 1478 4441 1245 4241 
Q 1013 4041 972 3647 
L 622 3647 
L 622 4469 
z
" id="DejaVuSerif-33" transform="scale(0.015625)"/>
       </defs>
       <use xlink:href="#DejaVuSerif-33"/>
       <use x="63.623047" xlink:href="#DejaVuSerif-30"/>
      </g>
     </g>
    </g>
    <g id="xtick_8">
     <g id="line2d_8">
      <g>
       <use style="stroke:#000000;stroke-width:0.8;" x="710.002033" xlink:href="#mc33c880944" y="887.673125"/>
      </g>
     </g>
     <g id="text_7">
      <!-- 35 -->
      <g transform="translate(694.732033 912.909375)scale(0.24 -0.24)">
       <use xlink:href="#DejaVuSerif-33"/>
       <use x="63.623047" xlink:href="#DejaVuSerif-35"/>
      </g>
     </g>
    </g>
    <g id="xtick_9">
     <g id="line2d_9">
      <g>
       <use style="stroke:#000000;stroke-width:0.8;" x="790.949809" xlink:href="#mc33c880944" y="887.673125"/>
      </g>
     </g>
     <g id="text_8">
      <!-- 40 -->
      <g transform="translate(775.679809 912.909375)scale(0.24 -0.24)">
       <defs>
        <path d="M 2234 1581 
L 2234 4063 
L 641 1581 
L 2234 1581 
z
M 3609 0 
L 1484 0 
L 1484 331 
L 2234 331 
L 2234 1247 
L 197 1247 
L 197 1588 
L 2241 4750 
L 2859 4750 
L 2859 1581 
L 3750 1581 
L 3750 1247 
L 2859 1247 
L 2859 331 
L 3609 331 
L 3609 0 
z
" id="DejaVuSerif-34" transform="scale(0.015625)"/>
       </defs>
       <use xlink:href="#DejaVuSerif-34"/>
       <use x="63.623047" xlink:href="#DejaVuSerif-30"/>
      </g>
     </g>
    </g>
    <g id="xtick_10">
     <g id="line2d_10">
      <g>
       <use style="stroke:#000000;stroke-width:0.8;" x="871.897585" xlink:href="#mc33c880944" y="887.673125"/>
      </g>
     </g>
     <g id="text_9">
      <!-- 45 -->
      <g transform="translate(856.627585 912.909375)scale(0.24 -0.24)">
       <use xlink:href="#DejaVuSerif-34"/>
       <use x="63.623047" xlink:href="#DejaVuSerif-35"/>
      </g>
     </g>
    </g>
    <g id="xtick_11">
     <g id="line2d_11">
      <g>
       <use style="stroke:#000000;stroke-width:0.8;" x="952.84536" xlink:href="#mc33c880944" y="887.673125"/>
      </g>
     </g>
     <g id="text_10">
      <!-- 50 -->
      <g transform="translate(937.57536 912.909375)scale(0.24 -0.24)">
       <use xlink:href="#DejaVuSerif-35"/>
       <use x="63.623047" xlink:href="#DejaVuSerif-30"/>
      </g>
     </g>
    </g>
    <g id="xtick_12">
     <g id="line2d_12">
      <g>
       <use style="stroke:#000000;stroke-width:0.8;" x="1033.793136" xlink:href="#mc33c880944" y="887.673125"/>
      </g>
     </g>
     <g id="text_11">
      <!-- 55 -->
      <g transform="translate(1018.523136 912.909375)scale(0.24 -0.24)">
       <use xlink:href="#DejaVuSerif-35"/>
       <use x="63.623047" xlink:href="#DejaVuSerif-35"/>
      </g>
     </g>
    </g>
    <g id="xtick_13">
     <g id="line2d_13">
      <g>
       <use style="stroke:#000000;stroke-width:0.8;" x="1114.740912" xlink:href="#mc33c880944" y="887.673125"/>
      </g>
     </g>
     <g id="text_12">
      <!-- 60 -->
      <g transform="translate(1099.470912 912.909375)scale(0.24 -0.24)">
       <defs>
        <path d="M 2094 219 
Q 2534 219 2771 542 
Q 3009 866 3009 1472 
Q 3009 2078 2771 2401 
Q 2534 2725 2094 2725 
Q 1647 2725 1412 2412 
Q 1178 2100 1178 1509 
Q 1178 888 1415 553 
Q 1653 219 2094 219 
z
M 1075 2569 
Q 1288 2803 1556 2918 
Q 1825 3034 2163 3034 
Q 2859 3034 3264 2615 
Q 3669 2197 3669 1472 
Q 3669 763 3233 336 
Q 2797 -91 2069 -91 
Q 1278 -91 853 498 
Q 428 1088 428 2181 
Q 428 3406 931 4078 
Q 1434 4750 2350 4750 
Q 2597 4750 2869 4703 
Q 3141 4656 3425 4563 
L 3425 3794 
L 3072 3794 
Q 3034 4109 2831 4275 
Q 2628 4441 2284 4441 
Q 1678 4441 1381 3981 
Q 1084 3522 1075 2569 
z
" id="DejaVuSerif-36" transform="scale(0.015625)"/>
       </defs>
       <use xlink:href="#DejaVuSerif-36"/>
       <use x="63.623047" xlink:href="#DejaVuSerif-30"/>
      </g>
     </g>
    </g>
    <g id="xtick_14">
     <g id="line2d_14">
      <g>
       <use style="stroke:#000000;stroke-width:0.8;" x="1195.688687" xlink:href="#mc33c880944" y="887.673125"/>
      </g>
     </g>
     <g id="text_13">
      <!-- 65 -->
      <g transform="translate(1180.418687 912.909375)scale(0.24 -0.24)">
       <use xlink:href="#DejaVuSerif-36"/>
       <use x="63.623047" xlink:href="#DejaVuSerif-35"/>
      </g>
     </g>
    </g>
    <g id="xtick_15">
     <g id="line2d_15">
      <g>
       <use style="stroke:#000000;stroke-width:0.8;" x="1276.636463" xlink:href="#mc33c880944" y="887.673125"/>
      </g>
     </g>
     <g id="text_14">
      <!-- 70 -->
      <g transform="translate(1261.366463 912.909375)scale(0.24 -0.24)">
       <defs>
        <path d="M 3609 4347 
L 1784 0 
L 1319 0 
L 3059 4153 
L 903 4153 
L 903 3578 
L 538 3578 
L 538 4666 
L 3609 4666 
L 3609 4347 
z
" id="DejaVuSerif-37" transform="scale(0.015625)"/>
       </defs>
       <use xlink:href="#DejaVuSerif-37"/>
       <use x="63.623047" xlink:href="#DejaVuSerif-30"/>
      </g>
     </g>
    </g>
    <g id="xtick_16">
     <g id="line2d_16">
      <g>
       <use style="stroke:#000000;stroke-width:0.8;" x="1357.584238" xlink:href="#mc33c880944" y="887.673125"/>
      </g>
     </g>
     <g id="text_15">
      <!-- 75 -->
      <g transform="translate(1342.314238 912.909375)scale(0.24 -0.24)">
       <use xlink:href="#DejaVuSerif-37"/>
       <use x="63.623047" xlink:href="#DejaVuSerif-35"/>
      </g>
     </g>
    </g>
    <g id="xtick_17">
     <g id="line2d_17">
      <g>
       <use style="stroke:#000000;stroke-width:0.8;" x="1438.532014" xlink:href="#mc33c880944" y="887.673125"/>
      </g>
     </g>
     <g id="text_16">
      <!-- 80 -->
      <g transform="translate(1423.262014 912.909375)scale(0.24 -0.24)">
       <defs>
        <path d="M 2981 1275 
Q 2981 1775 2732 2051 
Q 2484 2328 2034 2328 
Q 1584 2328 1336 2051 
Q 1088 1775 1088 1275 
Q 1088 772 1336 495 
Q 1584 219 2034 219 
Q 2484 219 2732 495 
Q 2981 772 2981 1275 
z
M 2853 3541 
Q 2853 3966 2637 4203 
Q 2422 4441 2034 4441 
Q 1650 4441 1433 4203 
Q 1216 3966 1216 3541 
Q 1216 3113 1433 2875 
Q 1650 2638 2034 2638 
Q 2422 2638 2637 2875 
Q 2853 3113 2853 3541 
z
M 2516 2484 
Q 3047 2413 3344 2092 
Q 3641 1772 3641 1275 
Q 3641 619 3225 264 
Q 2809 -91 2034 -91 
Q 1263 -91 845 264 
Q 428 619 428 1275 
Q 428 1772 725 2092 
Q 1022 2413 1556 2484 
Q 1084 2569 832 2842 
Q 581 3116 581 3541 
Q 581 4103 968 4426 
Q 1356 4750 2034 4750 
Q 2713 4750 3100 4426 
Q 3488 4103 3488 3541 
Q 3488 3116 3236 2842 
Q 2984 2569 2516 2484 
z
" id="DejaVuSerif-38" transform="scale(0.015625)"/>
       </defs>
       <use xlink:href="#DejaVuSerif-38"/>
       <use x="63.623047" xlink:href="#DejaVuSerif-30"/>
      </g>
     </g>
    </g>
    <g id="xtick_18">
     <g id="line2d_18">
      <g>
       <use style="stroke:#000000;stroke-width:0.8;" x="1519.47979" xlink:href="#mc33c880944" y="887.673125"/>
      </g>
     </g>
     <g id="text_17">
      <!-- 85 -->
      <g transform="translate(1504.20979 912.909375)scale(0.24 -0.24)">
       <use xlink:href="#DejaVuSerif-38"/>
       <use x="63.623047" xlink:href="#DejaVuSerif-35"/>
      </g>
     </g>
    </g>
    <g id="xtick_19">
     <g id="line2d_19">
      <g>
       <use style="stroke:#000000;stroke-width:0.8;" x="1600.427565" xlink:href="#mc33c880944" y="887.673125"/>
      </g>
     </g>
     <g id="text_18">
      <!-- 90 -->
      <g transform="translate(1585.157565 912.909375)scale(0.24 -0.24)">
       <defs>
        <path d="M 2994 2091 
Q 2784 1856 2512 1740 
Q 2241 1625 1900 1625 
Q 1206 1625 804 2044 
Q 403 2463 403 3188 
Q 403 3897 839 4323 
Q 1275 4750 2003 4750 
Q 2794 4750 3217 4161 
Q 3641 3572 3641 2478 
Q 3641 1253 3137 581 
Q 2634 -91 1722 -91 
Q 1475 -91 1203 -44 
Q 931 3 647 97 
L 647 872 
L 997 872 
Q 1038 556 1241 387 
Q 1444 219 1784 219 
Q 2391 219 2687 676 
Q 2984 1134 2994 2091 
z
M 1978 4441 
Q 1534 4441 1298 4117 
Q 1063 3794 1063 3188 
Q 1063 2581 1298 2256 
Q 1534 1931 1978 1931 
Q 2422 1931 2658 2245 
Q 2894 2559 2894 3150 
Q 2894 3772 2656 4106 
Q 2419 4441 1978 4441 
z
" id="DejaVuSerif-39" transform="scale(0.015625)"/>
       </defs>
       <use xlink:href="#DejaVuSerif-39"/>
       <use x="63.623047" xlink:href="#DejaVuSerif-30"/>
      </g>
     </g>
    </g>
    <g id="xtick_20">
     <g id="line2d_20">
      <g>
       <use style="stroke:#000000;stroke-width:0.8;" x="1681.375341" xlink:href="#mc33c880944" y="887.673125"/>
      </g>
     </g>
     <g id="text_19">
      <!-- 95 -->
      <g transform="translate(1666.105341 912.909375)scale(0.24 -0.24)">
       <use xlink:href="#DejaVuSerif-39"/>
       <use x="63.623047" xlink:href="#DejaVuSerif-35"/>
      </g>
     </g>
    </g>
    <g id="text_20">
     <!-- K-Clusters -->
     <g transform="translate(847.112813 943.17625)scale(0.28 -0.28)">
      <defs>
       <path d="M 353 0 
L 353 331 
L 947 331 
L 947 4331 
L 353 4331 
L 353 4666 
L 2175 4666 
L 2175 4331 
L 1581 4331 
L 1581 2566 
L 3591 4331 
L 3084 4331 
L 3084 4666 
L 4634 4666 
L 4634 4331 
L 4109 4331 
L 2106 2572 
L 4347 331 
L 4878 331 
L 4878 0 
L 3794 0 
L 1581 2216 
L 1581 331 
L 2175 331 
L 2175 0 
L 353 0 
z
" id="DejaVuSerif-4b" transform="scale(0.015625)"/>
       <path d="M 281 1959 
L 1881 1959 
L 1881 1472 
L 281 1472 
L 281 1959 
z
" id="DejaVuSerif-2d" transform="scale(0.015625)"/>
       <path d="M 4513 1234 
Q 4306 581 3820 245 
Q 3334 -91 2591 -91 
Q 2134 -91 1743 65 
Q 1353 222 1050 525 
Q 700 875 529 1320 
Q 359 1766 359 2328 
Q 359 3416 987 4083 
Q 1616 4750 2644 4750 
Q 3025 4750 3456 4650 
Q 3888 4550 4384 4347 
L 4384 3272 
L 4031 3272 
Q 3916 3859 3567 4137 
Q 3219 4416 2591 4416 
Q 1844 4416 1459 3886 
Q 1075 3356 1075 2328 
Q 1075 1303 1459 773 
Q 1844 244 2591 244 
Q 3113 244 3450 492 
Q 3788 741 3938 1234 
L 4513 1234 
z
" id="DejaVuSerif-43" transform="scale(0.015625)"/>
       <path d="M 1313 331 
L 1856 331 
L 1856 0 
L 184 0 
L 184 331 
L 738 331 
L 738 4531 
L 184 4531 
L 184 4863 
L 1313 4863 
L 1313 331 
z
" id="DejaVuSerif-6c" transform="scale(0.015625)"/>
       <path d="M 2266 3322 
L 3341 3322 
L 3341 331 
L 3884 331 
L 3884 0 
L 2766 0 
L 2766 588 
Q 2606 256 2353 82 
Q 2100 -91 1766 -91 
Q 1213 -91 952 223 
Q 691 538 691 1209 
L 691 2988 
L 172 2988 
L 172 3322 
L 1269 3322 
L 1269 1388 
Q 1269 781 1417 556 
Q 1566 331 1947 331 
Q 2347 331 2556 625 
Q 2766 919 2766 1478 
L 2766 2988 
L 2266 2988 
L 2266 3322 
z
" id="DejaVuSerif-75" transform="scale(0.015625)"/>
       <path d="M 359 184 
L 359 959 
L 691 959 
Q 703 588 923 403 
Q 1144 219 1575 219 
Q 1963 219 2166 364 
Q 2369 509 2369 788 
Q 2369 1006 2220 1140 
Q 2072 1275 1594 1428 
L 1178 1569 
Q 750 1706 558 1912 
Q 366 2119 366 2438 
Q 366 2894 700 3153 
Q 1034 3413 1625 3413 
Q 1888 3413 2178 3344 
Q 2469 3275 2778 3144 
L 2778 2419 
L 2447 2419 
Q 2434 2741 2221 2922 
Q 2009 3103 1644 3103 
Q 1281 3103 1095 2975 
Q 909 2847 909 2591 
Q 909 2381 1050 2254 
Q 1191 2128 1613 1997 
L 2069 1856 
Q 2541 1709 2748 1489 
Q 2956 1269 2956 922 
Q 2956 450 2595 179 
Q 2234 -91 1600 -91 
Q 1278 -91 972 -22 
Q 666 47 359 184 
z
" id="DejaVuSerif-73" transform="scale(0.015625)"/>
       <path d="M 691 2988 
L 184 2988 
L 184 3322 
L 691 3322 
L 691 4353 
L 1269 4353 
L 1269 3322 
L 2350 3322 
L 2350 2988 
L 1269 2988 
L 1269 878 
Q 1269 456 1350 337 
Q 1431 219 1650 219 
Q 1875 219 1978 351 
Q 2081 484 2088 781 
L 2522 781 
Q 2497 328 2275 118 
Q 2053 -91 1600 -91 
Q 1103 -91 897 129 
Q 691 350 691 878 
L 691 2988 
z
" id="DejaVuSerif-74" transform="scale(0.015625)"/>
       <path d="M 3469 1600 
L 991 1600 
L 991 1575 
Q 991 903 1244 561 
Q 1497 219 1991 219 
Q 2369 219 2611 417 
Q 2853 616 2950 1006 
L 3413 1006 
Q 3275 459 2904 184 
Q 2534 -91 1931 -91 
Q 1203 -91 761 389 
Q 319 869 319 1663 
Q 319 2450 753 2931 
Q 1188 3413 1894 3413 
Q 2647 3413 3050 2948 
Q 3453 2484 3469 1600 
z
M 2791 1931 
Q 2772 2513 2545 2808 
Q 2319 3103 1894 3103 
Q 1497 3103 1269 2806 
Q 1041 2509 991 1931 
L 2791 1931 
z
" id="DejaVuSerif-65" transform="scale(0.015625)"/>
       <path d="M 3059 3328 
L 3059 2497 
L 2728 2497 
Q 2713 2744 2591 2866 
Q 2469 2988 2234 2988 
Q 1809 2988 1582 2694 
Q 1356 2400 1356 1850 
L 1356 331 
L 2022 331 
L 2022 0 
L 263 0 
L 263 331 
L 781 331 
L 781 2994 
L 231 2994 
L 231 3322 
L 1356 3322 
L 1356 2731 
Q 1525 3078 1790 3245 
Q 2056 3413 2438 3413 
Q 2578 3413 2733 3391 
Q 2888 3369 3059 3328 
z
" id="DejaVuSerif-72" transform="scale(0.015625)"/>
      </defs>
      <use xlink:href="#DejaVuSerif-4b"/>
      <use x="67.457031" xlink:href="#DejaVuSerif-2d"/>
      <use x="101.246094" xlink:href="#DejaVuSerif-43"/>
      <use x="177.759766" xlink:href="#DejaVuSerif-6c"/>
      <use x="209.742188" xlink:href="#DejaVuSerif-75"/>
      <use x="274.146484" xlink:href="#DejaVuSerif-73"/>
      <use x="325.464844" xlink:href="#DejaVuSerif-74"/>
      <use x="365.650391" xlink:href="#DejaVuSerif-65"/>
      <use x="424.830078" xlink:href="#DejaVuSerif-72"/>
      <use x="472.632812" xlink:href="#DejaVuSerif-73"/>
     </g>
    </g>
   </g>
   <g id="matplotlib.axis_2">
    <g id="ytick_1">
     <g id="line2d_21">
      <path clip-path="url(#pca7375bbaf)" d="M 83.46625 871.606185 
L 1757.46625 871.606185 
" style="fill:none;stroke:#b0b0b0;stroke-linecap:square;stroke-width:0.8;"/>
     </g>
     <g id="line2d_22">
      <defs>
       <path d="M 0 0 
L -3.5 0 
" id="m1da4dc3197" style="stroke:#000000;stroke-width:0.8;"/>
      </defs>
      <g>
       <use style="stroke:#000000;stroke-width:0.8;" x="83.46625" xlink:href="#m1da4dc3197" y="871.606185"/>
      </g>
     </g>
     <g id="text_21">
      <!-- 0.1 -->
      <g transform="translate(38.29875 880.72431)scale(0.24 -0.24)">
       <defs>
        <path d="M 603 325 
Q 603 500 722 622 
Q 841 744 1019 744 
Q 1191 744 1312 622 
Q 1434 500 1434 325 
Q 1434 153 1312 31 
Q 1191 -91 1019 -91 
Q 841 -91 722 29 
Q 603 150 603 325 
z
" id="DejaVuSerif-2e" transform="scale(0.015625)"/>
       </defs>
       <use xlink:href="#DejaVuSerif-30"/>
       <use x="63.623047" xlink:href="#DejaVuSerif-2e"/>
       <use x="95.410156" xlink:href="#DejaVuSerif-31"/>
      </g>
     </g>
    </g>
    <g id="ytick_2">
     <g id="line2d_23">
      <path clip-path="url(#pca7375bbaf)" d="M 83.46625 716.370045 
L 1757.46625 716.370045 
" style="fill:none;stroke:#b0b0b0;stroke-linecap:square;stroke-width:0.8;"/>
     </g>
     <g id="line2d_24">
      <g>
       <use style="stroke:#000000;stroke-width:0.8;" x="83.46625" xlink:href="#m1da4dc3197" y="716.370045"/>
      </g>
     </g>
     <g id="text_22">
      <!-- 0.2 -->
      <g transform="translate(38.29875 725.48817)scale(0.24 -0.24)">
       <use xlink:href="#DejaVuSerif-30"/>
       <use x="63.623047" xlink:href="#DejaVuSerif-2e"/>
       <use x="95.410156" xlink:href="#DejaVuSerif-32"/>
      </g>
     </g>
    </g>
    <g id="ytick_3">
     <g id="line2d_25">
      <path clip-path="url(#pca7375bbaf)" d="M 83.46625 561.133905 
L 1757.46625 561.133905 
" style="fill:none;stroke:#b0b0b0;stroke-linecap:square;stroke-width:0.8;"/>
     </g>
     <g id="line2d_26">
      <g>
       <use style="stroke:#000000;stroke-width:0.8;" x="83.46625" xlink:href="#m1da4dc3197" y="561.133905"/>
      </g>
     </g>
     <g id="text_23">
      <!-- 0.3 -->
      <g transform="translate(38.29875 570.25203)scale(0.24 -0.24)">
       <use xlink:href="#DejaVuSerif-30"/>
       <use x="63.623047" xlink:href="#DejaVuSerif-2e"/>
       <use x="95.410156" xlink:href="#DejaVuSerif-33"/>
      </g>
     </g>
    </g>
    <g id="ytick_4">
     <g id="line2d_27">
      <path clip-path="url(#pca7375bbaf)" d="M 83.46625 405.897766 
L 1757.46625 405.897766 
" style="fill:none;stroke:#b0b0b0;stroke-linecap:square;stroke-width:0.8;"/>
     </g>
     <g id="line2d_28">
      <g>
       <use style="stroke:#000000;stroke-width:0.8;" x="83.46625" xlink:href="#m1da4dc3197" y="405.897766"/>
      </g>
     </g>
     <g id="text_24">
      <!-- 0.4 -->
      <g transform="translate(38.29875 415.015891)scale(0.24 -0.24)">
       <use xlink:href="#DejaVuSerif-30"/>
       <use x="63.623047" xlink:href="#DejaVuSerif-2e"/>
       <use x="95.410156" xlink:href="#DejaVuSerif-34"/>
      </g>
     </g>
    </g>
    <g id="ytick_5">
     <g id="line2d_29">
      <path clip-path="url(#pca7375bbaf)" d="M 83.46625 250.661626 
L 1757.46625 250.661626 
" style="fill:none;stroke:#b0b0b0;stroke-linecap:square;stroke-width:0.8;"/>
     </g>
     <g id="line2d_30">
      <g>
       <use style="stroke:#000000;stroke-width:0.8;" x="83.46625" xlink:href="#m1da4dc3197" y="250.661626"/>
      </g>
     </g>
     <g id="text_25">
      <!-- 0.5 -->
      <g transform="translate(38.29875 259.779751)scale(0.24 -0.24)">
       <use xlink:href="#DejaVuSerif-30"/>
       <use x="63.623047" xlink:href="#DejaVuSerif-2e"/>
       <use x="95.410156" xlink:href="#DejaVuSerif-35"/>
      </g>
     </g>
    </g>
    <g id="ytick_6">
     <g id="line2d_31">
      <path clip-path="url(#pca7375bbaf)" d="M 83.46625 95.425486 
L 1757.46625 95.425486 
" style="fill:none;stroke:#b0b0b0;stroke-linecap:square;stroke-width:0.8;"/>
     </g>
     <g id="line2d_32">
      <g>
       <use style="stroke:#000000;stroke-width:0.8;" x="83.46625" xlink:href="#m1da4dc3197" y="95.425486"/>
      </g>
     </g>
     <g id="text_26">
      <!-- 0.6 -->
      <g transform="translate(38.29875 104.543611)scale(0.24 -0.24)">
       <use xlink:href="#DejaVuSerif-30"/>
       <use x="63.623047" xlink:href="#DejaVuSerif-2e"/>
       <use x="95.410156" xlink:href="#DejaVuSerif-36"/>
      </g>
     </g>
    </g>
    <g id="text_27">
     <!-- Mean (n=100 Random Seeds) Proportion of Accurate Predictions -->
     <g transform="translate(28.475625 936.54625)rotate(-90)scale(0.28 -0.28)">
      <defs>
       <path d="M 353 0 
L 353 331 
L 947 331 
L 947 4331 
L 319 4331 
L 319 4666 
L 1678 4666 
L 3316 1344 
L 4953 4666 
L 6228 4666 
L 6228 4331 
L 5606 4331 
L 5606 331 
L 6203 331 
L 6203 0 
L 4378 0 
L 4378 331 
L 4972 331 
L 4972 3938 
L 3372 684 
L 2931 684 
L 1331 3938 
L 1331 331 
L 1925 331 
L 1925 0 
L 353 0 
z
" id="DejaVuSerif-4d" transform="scale(0.015625)"/>
       <path d="M 2547 1044 
L 2547 1747 
L 1806 1747 
Q 1378 1747 1168 1562 
Q 959 1378 959 997 
Q 959 650 1171 447 
Q 1384 244 1747 244 
Q 2106 244 2326 466 
Q 2547 688 2547 1044 
z
M 3122 2075 
L 3122 331 
L 3634 331 
L 3634 0 
L 2547 0 
L 2547 359 
Q 2356 128 2106 18 
Q 1856 -91 1522 -91 
Q 969 -91 644 203 
Q 319 497 319 997 
Q 319 1513 691 1797 
Q 1063 2081 1741 2081 
L 2547 2081 
L 2547 2309 
Q 2547 2688 2317 2895 
Q 2088 3103 1672 3103 
Q 1328 3103 1125 2947 
Q 922 2791 872 2484 
L 575 2484 
L 575 3156 
Q 875 3284 1158 3348 
Q 1441 3413 1709 3413 
Q 2400 3413 2761 3070 
Q 3122 2728 3122 2075 
z
" id="DejaVuSerif-61" transform="scale(0.015625)"/>
       <path d="M 263 0 
L 263 331 
L 781 331 
L 781 2988 
L 231 2988 
L 231 3322 
L 1356 3322 
L 1356 2731 
Q 1516 3069 1770 3241 
Q 2025 3413 2363 3413 
Q 2913 3413 3172 3097 
Q 3431 2781 3431 2113 
L 3431 331 
L 3944 331 
L 3944 0 
L 2356 0 
L 2356 331 
L 2853 331 
L 2853 1931 
Q 2853 2541 2703 2767 
Q 2553 2994 2175 2994 
Q 1775 2994 1565 2701 
Q 1356 2409 1356 1850 
L 1356 331 
L 1856 331 
L 1856 0 
L 263 0 
z
" id="DejaVuSerif-6e" transform="scale(0.015625)"/>
       <path id="DejaVuSerif-20" transform="scale(0.015625)"/>
       <path d="M 2041 -997 
Q 1281 -656 893 83 
Q 506 822 506 1931 
Q 506 3044 893 3783 
Q 1281 4522 2041 4863 
L 2041 4556 
Q 1559 4225 1350 3623 
Q 1141 3022 1141 1931 
Q 1141 844 1350 242 
Q 1559 -359 2041 -691 
L 2041 -997 
z
" id="DejaVuSerif-28" transform="scale(0.015625)"/>
       <path d="M 678 2894 
L 4684 2894 
L 4684 2394 
L 678 2394 
L 678 2894 
z
M 678 1619 
L 4684 1619 
L 4684 1119 
L 678 1119 
L 678 1619 
z
" id="DejaVuSerif-3d" transform="scale(0.015625)"/>
       <path d="M 3066 2316 
Q 3284 2256 3442 2114 
Q 3600 1972 3725 1716 
L 4403 331 
L 4972 331 
L 4972 0 
L 3872 0 
L 3144 1484 
Q 2934 1916 2759 2042 
Q 2584 2169 2278 2169 
L 1581 2169 
L 1581 331 
L 2241 331 
L 2241 0 
L 353 0 
L 353 331 
L 947 331 
L 947 4331 
L 353 4331 
L 353 4666 
L 2719 4666 
Q 3400 4666 3770 4341 
Q 4141 4016 4141 3419 
Q 4141 2938 3870 2661 
Q 3600 2384 3066 2316 
z
M 1581 2503 
L 2503 2503 
Q 2975 2503 3200 2726 
Q 3425 2950 3425 3419 
Q 3425 3888 3200 4109 
Q 2975 4331 2503 4331 
L 1581 4331 
L 1581 2503 
z
" id="DejaVuSerif-52" transform="scale(0.015625)"/>
       <path d="M 3359 331 
L 3909 331 
L 3909 0 
L 2784 0 
L 2784 519 
Q 2616 206 2355 57 
Q 2094 -91 1709 -91 
Q 1097 -91 708 395 
Q 319 881 319 1663 
Q 319 2444 706 2928 
Q 1094 3413 1709 3413 
Q 2094 3413 2355 3264 
Q 2616 3116 2784 2803 
L 2784 4531 
L 2241 4531 
L 2241 4863 
L 3359 4863 
L 3359 331 
z
M 2784 1497 
L 2784 1825 
Q 2784 2422 2554 2737 
Q 2325 3053 1888 3053 
Q 1444 3053 1217 2703 
Q 991 2353 991 1663 
Q 991 975 1217 622 
Q 1444 269 1888 269 
Q 2325 269 2554 583 
Q 2784 897 2784 1497 
z
" id="DejaVuSerif-64" transform="scale(0.015625)"/>
       <path d="M 1925 219 
Q 2388 219 2623 584 
Q 2859 950 2859 1663 
Q 2859 2375 2623 2739 
Q 2388 3103 1925 3103 
Q 1463 3103 1227 2739 
Q 991 2375 991 1663 
Q 991 950 1228 584 
Q 1466 219 1925 219 
z
M 1925 -91 
Q 1200 -91 759 389 
Q 319 869 319 1663 
Q 319 2456 758 2934 
Q 1197 3413 1925 3413 
Q 2653 3413 3092 2934 
Q 3531 2456 3531 1663 
Q 3531 869 3092 389 
Q 2653 -91 1925 -91 
z
" id="DejaVuSerif-6f" transform="scale(0.015625)"/>
       <path d="M 3316 2675 
Q 3481 3041 3739 3227 
Q 3997 3413 4341 3413 
Q 4863 3413 5119 3089 
Q 5375 2766 5375 2113 
L 5375 331 
L 5894 331 
L 5894 0 
L 4300 0 
L 4300 331 
L 4800 331 
L 4800 2047 
Q 4800 2556 4650 2772 
Q 4500 2988 4153 2988 
Q 3769 2988 3567 2697 
Q 3366 2406 3366 1850 
L 3366 331 
L 3866 331 
L 3866 0 
L 2291 0 
L 2291 331 
L 2791 331 
L 2791 2069 
Q 2791 2566 2641 2777 
Q 2491 2988 2144 2988 
Q 1759 2988 1557 2697 
Q 1356 2406 1356 1850 
L 1356 331 
L 1856 331 
L 1856 0 
L 263 0 
L 263 331 
L 781 331 
L 781 2994 
L 231 2994 
L 231 3322 
L 1356 3322 
L 1356 2731 
Q 1516 3063 1762 3238 
Q 2009 3413 2322 3413 
Q 2709 3413 2968 3220 
Q 3228 3028 3316 2675 
z
" id="DejaVuSerif-6d" transform="scale(0.015625)"/>
       <path d="M 594 225 
L 594 1288 
L 953 1284 
Q 969 753 1261 498 
Q 1553 244 2150 244 
Q 2706 244 2998 464 
Q 3291 684 3291 1106 
Q 3291 1444 3114 1625 
Q 2938 1806 2369 1978 
L 1753 2163 
Q 1084 2366 811 2669 
Q 538 2972 538 3500 
Q 538 4094 959 4422 
Q 1381 4750 2144 4750 
Q 2469 4750 2856 4679 
Q 3244 4609 3681 4475 
L 3681 3481 
L 3328 3481 
Q 3275 3975 2998 4195 
Q 2722 4416 2156 4416 
Q 1663 4416 1405 4214 
Q 1147 4013 1147 3628 
Q 1147 3294 1340 3103 
Q 1534 2913 2163 2725 
L 2741 2553 
Q 3375 2363 3645 2067 
Q 3916 1772 3916 1275 
Q 3916 597 3481 253 
Q 3047 -91 2188 -91 
Q 1803 -91 1404 -12 
Q 1006 66 594 225 
z
" id="DejaVuSerif-53" transform="scale(0.015625)"/>
       <path d="M 453 -997 
L 453 -691 
Q 934 -359 1145 242 
Q 1356 844 1356 1931 
Q 1356 3022 1145 3623 
Q 934 4225 453 4556 
L 453 4863 
Q 1216 4522 1603 3783 
Q 1991 3044 1991 1931 
Q 1991 822 1603 83 
Q 1216 -656 453 -997 
z
" id="DejaVuSerif-29" transform="scale(0.015625)"/>
       <path d="M 1581 2375 
L 2406 2375 
Q 2872 2375 3115 2626 
Q 3359 2878 3359 3353 
Q 3359 3831 3115 4081 
Q 2872 4331 2406 4331 
L 1581 4331 
L 1581 2375 
z
M 353 0 
L 353 331 
L 947 331 
L 947 4331 
L 353 4331 
L 353 4666 
L 2559 4666 
Q 3259 4666 3668 4311 
Q 4078 3956 4078 3353 
Q 4078 2753 3668 2397 
Q 3259 2041 2559 2041 
L 1581 2041 
L 1581 331 
L 2303 331 
L 2303 0 
L 353 0 
z
" id="DejaVuSerif-50" transform="scale(0.015625)"/>
       <path d="M 1313 1825 
L 1313 1497 
Q 1313 897 1542 583 
Q 1772 269 2209 269 
Q 2650 269 2876 622 
Q 3103 975 3103 1663 
Q 3103 2353 2876 2703 
Q 2650 3053 2209 3053 
Q 1772 3053 1542 2737 
Q 1313 2422 1313 1825 
z
M 738 2988 
L 184 2988 
L 184 3322 
L 1313 3322 
L 1313 2803 
Q 1481 3116 1742 3264 
Q 2003 3413 2388 3413 
Q 3000 3413 3387 2928 
Q 3775 2444 3775 1663 
Q 3775 881 3387 395 
Q 3000 -91 2388 -91 
Q 2003 -91 1742 57 
Q 1481 206 1313 519 
L 1313 -997 
L 1856 -997 
L 1856 -1331 
L 184 -1331 
L 184 -997 
L 738 -997 
L 738 2988 
z
" id="DejaVuSerif-70" transform="scale(0.015625)"/>
       <path d="M 622 4353 
Q 622 4497 726 4603 
Q 831 4709 978 4709 
Q 1122 4709 1226 4603 
Q 1331 4497 1331 4353 
Q 1331 4206 1228 4103 
Q 1125 4000 978 4000 
Q 831 4000 726 4103 
Q 622 4206 622 4353 
z
M 1356 331 
L 1900 331 
L 1900 0 
L 231 0 
L 231 331 
L 781 331 
L 781 2988 
L 231 2988 
L 231 3322 
L 1356 3322 
L 1356 331 
z
" id="DejaVuSerif-69" transform="scale(0.015625)"/>
       <path d="M 2753 4078 
L 2450 4078 
Q 2447 4313 2317 4434 
Q 2188 4556 1941 4556 
Q 1619 4556 1487 4379 
Q 1356 4203 1356 3750 
L 1356 3322 
L 2284 3322 
L 2284 2988 
L 1356 2988 
L 1356 331 
L 2094 331 
L 2094 0 
L 231 0 
L 231 331 
L 781 331 
L 781 2988 
L 231 2988 
L 231 3322 
L 781 3322 
L 781 3738 
Q 781 4294 1070 4578 
Q 1359 4863 1919 4863 
Q 2128 4863 2337 4825 
Q 2547 4788 2753 4709 
L 2753 4078 
z
" id="DejaVuSerif-66" transform="scale(0.015625)"/>
       <path d="M 1281 1691 
L 2994 1691 
L 2138 3909 
L 1281 1691 
z
M -38 0 
L -38 331 
L 372 331 
L 2034 4666 
L 2559 4666 
L 4225 331 
L 4684 331 
L 4684 0 
L 2988 0 
L 2988 331 
L 3506 331 
L 3116 1356 
L 1153 1356 
L 763 331 
L 1275 331 
L 1275 0 
L -38 0 
z
" id="DejaVuSerif-41" transform="scale(0.015625)"/>
       <path d="M 3291 997 
Q 3169 466 2822 187 
Q 2475 -91 1925 -91 
Q 1200 -91 759 389 
Q 319 869 319 1663 
Q 319 2459 759 2936 
Q 1200 3413 1925 3413 
Q 2241 3413 2553 3339 
Q 2866 3266 3181 3116 
L 3181 2266 
L 2847 2266 
Q 2781 2703 2561 2903 
Q 2341 3103 1931 3103 
Q 1466 3103 1228 2742 
Q 991 2381 991 1663 
Q 991 944 1227 581 
Q 1463 219 1931 219 
Q 2303 219 2525 412 
Q 2747 606 2828 997 
L 3291 997 
z
" id="DejaVuSerif-63" transform="scale(0.015625)"/>
      </defs>
      <use xlink:href="#DejaVuSerif-4d"/>
      <use x="102.392578" xlink:href="#DejaVuSerif-65"/>
      <use x="161.572266" xlink:href="#DejaVuSerif-61"/>
      <use x="221.191406" xlink:href="#DejaVuSerif-6e"/>
      <use x="285.595703" xlink:href="#DejaVuSerif-20"/>
      <use x="317.382812" xlink:href="#DejaVuSerif-28"/>
      <use x="356.396484" xlink:href="#DejaVuSerif-6e"/>
      <use x="420.800781" xlink:href="#DejaVuSerif-3d"/>
      <use x="504.589844" xlink:href="#DejaVuSerif-31"/>
      <use x="568.212891" xlink:href="#DejaVuSerif-30"/>
      <use x="631.835938" xlink:href="#DejaVuSerif-30"/>
      <use x="695.458984" xlink:href="#DejaVuSerif-20"/>
      <use x="727.246094" xlink:href="#DejaVuSerif-52"/>
      <use x="804.789062" xlink:href="#DejaVuSerif-61"/>
      <use x="864.408203" xlink:href="#DejaVuSerif-6e"/>
      <use x="928.8125" xlink:href="#DejaVuSerif-64"/>
      <use x="992.826172" xlink:href="#DejaVuSerif-6f"/>
      <use x="1053.03125" xlink:href="#DejaVuSerif-6d"/>
      <use x="1147.855469" xlink:href="#DejaVuSerif-20"/>
      <use x="1179.642578" xlink:href="#DejaVuSerif-53"/>
      <use x="1248.148438" xlink:href="#DejaVuSerif-65"/>
      <use x="1307.328125" xlink:href="#DejaVuSerif-65"/>
      <use x="1366.507812" xlink:href="#DejaVuSerif-64"/>
      <use x="1430.521484" xlink:href="#DejaVuSerif-73"/>
      <use x="1481.839844" xlink:href="#DejaVuSerif-29"/>
      <use x="1520.853516" xlink:href="#DejaVuSerif-20"/>
      <use x="1552.640625" xlink:href="#DejaVuSerif-50"/>
      <use x="1619.925781" xlink:href="#DejaVuSerif-72"/>
      <use x="1667.728516" xlink:href="#DejaVuSerif-6f"/>
      <use x="1727.933594" xlink:href="#DejaVuSerif-70"/>
      <use x="1791.947266" xlink:href="#DejaVuSerif-6f"/>
      <use x="1852.152344" xlink:href="#DejaVuSerif-72"/>
      <use x="1899.955078" xlink:href="#DejaVuSerif-74"/>
      <use x="1940.140625" xlink:href="#DejaVuSerif-69"/>
      <use x="1972.123047" xlink:href="#DejaVuSerif-6f"/>
      <use x="2032.328125" xlink:href="#DejaVuSerif-6e"/>
      <use x="2096.732422" xlink:href="#DejaVuSerif-20"/>
      <use x="2128.519531" xlink:href="#DejaVuSerif-6f"/>
      <use x="2188.724609" xlink:href="#DejaVuSerif-66"/>
      <use x="2225.736328" xlink:href="#DejaVuSerif-20"/>
      <use x="2257.523438" xlink:href="#DejaVuSerif-41"/>
      <use x="2329.740234" xlink:href="#DejaVuSerif-63"/>
      <use x="2385.746094" xlink:href="#DejaVuSerif-63"/>
      <use x="2441.751953" xlink:href="#DejaVuSerif-75"/>
      <use x="2506.15625" xlink:href="#DejaVuSerif-72"/>
      <use x="2553.958984" xlink:href="#DejaVuSerif-61"/>
      <use x="2613.578125" xlink:href="#DejaVuSerif-74"/>
      <use x="2653.763672" xlink:href="#DejaVuSerif-65"/>
      <use x="2712.943359" xlink:href="#DejaVuSerif-20"/>
      <use x="2744.730469" xlink:href="#DejaVuSerif-50"/>
      <use x="2812.015625" xlink:href="#DejaVuSerif-72"/>
      <use x="2859.818359" xlink:href="#DejaVuSerif-65"/>
      <use x="2918.998047" xlink:href="#DejaVuSerif-64"/>
      <use x="2983.011719" xlink:href="#DejaVuSerif-69"/>
      <use x="3014.994141" xlink:href="#DejaVuSerif-63"/>
      <use x="3071" xlink:href="#DejaVuSerif-74"/>
      <use x="3111.185547" xlink:href="#DejaVuSerif-69"/>
      <use x="3143.167969" xlink:href="#DejaVuSerif-6f"/>
      <use x="3203.373047" xlink:href="#DejaVuSerif-6e"/>
      <use x="3267.777344" xlink:href="#DejaVuSerif-73"/>
     </g>
    </g>
   </g>
   <g id="LineCollection_1">
    <path clip-path="url(#pca7375bbaf)" d="M 159.557159 849.873125 
L 159.557159 800.19756 
" style="fill:none;stroke:#1f77b4;stroke-width:1.5;"/>
    <path clip-path="url(#pca7375bbaf)" d="M 175.746714 741.207827 
L 175.746714 669.799203 
" style="fill:none;stroke:#1f77b4;stroke-width:1.5;"/>
    <path clip-path="url(#pca7375bbaf)" d="M 191.936269 627.885445 
L 191.936269 553.372098 
" style="fill:none;stroke:#1f77b4;stroke-width:1.5;"/>
    <path clip-path="url(#pca7375bbaf)" d="M 208.125824 694.636985 
L 208.125824 613.914193 
" style="fill:none;stroke:#1f77b4;stroke-width:1.5;"/>
    <path clip-path="url(#pca7375bbaf)" d="M 224.31538 556.476821 
L 224.31538 463.335137 
" style="fill:none;stroke:#1f77b4;stroke-width:1.5;"/>
    <path clip-path="url(#pca7375bbaf)" d="M 240.504935 542.505569 
L 240.504935 458.678053 
" style="fill:none;stroke:#1f77b4;stroke-width:1.5;"/>
    <path clip-path="url(#pca7375bbaf)" d="M 256.69449 457.125692 
L 256.69449 376.402899 
" style="fill:none;stroke:#1f77b4;stroke-width:1.5;"/>
    <path clip-path="url(#pca7375bbaf)" d="M 272.884045 405.897766 
L 272.884045 325.174973 
" style="fill:none;stroke:#1f77b4;stroke-width:1.5;"/>
    <path clip-path="url(#pca7375bbaf)" d="M 289.0736 412.107211 
L 289.0736 315.860805 
" style="fill:none;stroke:#1f77b4;stroke-width:1.5;"/>
    <path clip-path="url(#pca7375bbaf)" d="M 305.263155 353.117478 
L 305.263155 266.18524 
" style="fill:none;stroke:#1f77b4;stroke-width:1.5;"/>
    <path clip-path="url(#pca7375bbaf)" d="M 321.45271 356.222201 
L 321.45271 269.289963 
" style="fill:none;stroke:#1f77b4;stroke-width:1.5;"/>
    <path clip-path="url(#pca7375bbaf)" d="M 337.642265 404.345404 
L 337.642265 317.413166 
" style="fill:none;stroke:#1f77b4;stroke-width:1.5;"/>
    <path clip-path="url(#pca7375bbaf)" d="M 353.831821 312.756082 
L 353.831821 232.033289 
" style="fill:none;stroke:#1f77b4;stroke-width:1.5;"/>
    <path clip-path="url(#pca7375bbaf)" d="M 370.021376 329.832057 
L 370.021376 252.213987 
" style="fill:none;stroke:#1f77b4;stroke-width:1.5;"/>
    <path clip-path="url(#pca7375bbaf)" d="M 386.210931 317.413166 
L 386.210931 236.690373 
" style="fill:none;stroke:#1f77b4;stroke-width:1.5;"/>
    <path clip-path="url(#pca7375bbaf)" d="M 402.400486 317.413166 
L 402.400486 218.062037 
" style="fill:none;stroke:#1f77b4;stroke-width:1.5;"/>
    <path clip-path="url(#pca7375bbaf)" d="M 418.590041 326.727334 
L 418.590041 233.585651 
" style="fill:none;stroke:#1f77b4;stroke-width:1.5;"/>
    <path clip-path="url(#pca7375bbaf)" d="M 434.779596 317.413166 
L 434.779596 214.957314 
" style="fill:none;stroke:#1f77b4;stroke-width:1.5;"/>
    <path clip-path="url(#pca7375bbaf)" d="M 450.969151 309.651359 
L 450.969151 216.509675 
" style="fill:none;stroke:#1f77b4;stroke-width:1.5;"/>
    <path clip-path="url(#pca7375bbaf)" d="M 467.158706 286.365938 
L 467.158706 202.538423 
" style="fill:none;stroke:#1f77b4;stroke-width:1.5;"/>
    <path clip-path="url(#pca7375bbaf)" d="M 483.348262 336.041503 
L 483.348262 242.899819 
" style="fill:none;stroke:#1f77b4;stroke-width:1.5;"/>
    <path clip-path="url(#pca7375bbaf)" d="M 499.537817 320.517889 
L 499.537817 218.062037 
" style="fill:none;stroke:#1f77b4;stroke-width:1.5;"/>
    <path clip-path="url(#pca7375bbaf)" d="M 515.727372 284.813577 
L 515.727372 200.986061 
" style="fill:none;stroke:#1f77b4;stroke-width:1.5;"/>
    <path clip-path="url(#pca7375bbaf)" d="M 531.916927 314.308443 
L 531.916927 218.062037 
" style="fill:none;stroke:#1f77b4;stroke-width:1.5;"/>
    <path clip-path="url(#pca7375bbaf)" d="M 548.106482 259.975794 
L 548.106482 169.938833 
" style="fill:none;stroke:#1f77b4;stroke-width:1.5;"/>
    <path clip-path="url(#pca7375bbaf)" d="M 564.296037 249.109265 
L 564.296037 159.072304 
" style="fill:none;stroke:#1f77b4;stroke-width:1.5;"/>
    <path clip-path="url(#pca7375bbaf)" d="M 580.485592 264.632879 
L 580.485592 180.805363 
" style="fill:none;stroke:#1f77b4;stroke-width:1.5;"/>
    <path clip-path="url(#pca7375bbaf)" d="M 596.675147 259.975794 
L 596.675147 169.938833 
" style="fill:none;stroke:#1f77b4;stroke-width:1.5;"/>
    <path clip-path="url(#pca7375bbaf)" d="M 612.864703 241.347458 
L 612.864703 154.415219 
" style="fill:none;stroke:#1f77b4;stroke-width:1.5;"/>
    <path clip-path="url(#pca7375bbaf)" d="M 629.054258 233.585651 
L 629.054258 146.653412 
" style="fill:none;stroke:#1f77b4;stroke-width:1.5;"/>
    <path clip-path="url(#pca7375bbaf)" d="M 645.243813 283.261215 
L 645.243813 190.119532 
" style="fill:none;stroke:#1f77b4;stroke-width:1.5;"/>
    <path clip-path="url(#pca7375bbaf)" d="M 661.433368 289.470661 
L 661.433368 199.4337 
" style="fill:none;stroke:#1f77b4;stroke-width:1.5;"/>
    <path clip-path="url(#pca7375bbaf)" d="M 677.622923 294.127745 
L 677.622923 210.30023 
" style="fill:none;stroke:#1f77b4;stroke-width:1.5;"/>
    <path clip-path="url(#pca7375bbaf)" d="M 693.812478 272.394686 
L 693.812478 185.462447 
" style="fill:none;stroke:#1f77b4;stroke-width:1.5;"/>
    <path clip-path="url(#pca7375bbaf)" d="M 710.002033 255.31871 
L 710.002033 159.072304 
" style="fill:none;stroke:#1f77b4;stroke-width:1.5;"/>
    <path clip-path="url(#pca7375bbaf)" d="M 726.191588 249.109265 
L 726.191588 159.072304 
" style="fill:none;stroke:#1f77b4;stroke-width:1.5;"/>
    <path clip-path="url(#pca7375bbaf)" d="M 742.381144 255.31871 
L 742.381144 159.072304 
" style="fill:none;stroke:#1f77b4;stroke-width:1.5;"/>
    <path clip-path="url(#pca7375bbaf)" d="M 758.570699 273.947047 
L 758.570699 193.224254 
" style="fill:none;stroke:#1f77b4;stroke-width:1.5;"/>
    <path clip-path="url(#pca7375bbaf)" d="M 774.760254 297.232468 
L 774.760254 204.090784 
" style="fill:none;stroke:#1f77b4;stroke-width:1.5;"/>
    <path clip-path="url(#pca7375bbaf)" d="M 790.949809 270.842324 
L 790.949809 180.805363 
" style="fill:none;stroke:#1f77b4;stroke-width:1.5;"/>
    <path clip-path="url(#pca7375bbaf)" d="M 807.139364 256.871072 
L 807.139364 160.624665 
" style="fill:none;stroke:#1f77b4;stroke-width:1.5;"/>
    <path clip-path="url(#pca7375bbaf)" d="M 823.328919 252.213987 
L 823.328919 171.491195 
" style="fill:none;stroke:#1f77b4;stroke-width:1.5;"/>
    <path clip-path="url(#pca7375bbaf)" d="M 839.518474 261.528156 
L 839.518474 183.910086 
" style="fill:none;stroke:#1f77b4;stroke-width:1.5;"/>
    <path clip-path="url(#pca7375bbaf)" d="M 855.708029 253.766349 
L 855.708029 166.834111 
" style="fill:none;stroke:#1f77b4;stroke-width:1.5;"/>
    <path clip-path="url(#pca7375bbaf)" d="M 871.897585 202.538423 
L 871.897585 109.396739 
" style="fill:none;stroke:#1f77b4;stroke-width:1.5;"/>
    <path clip-path="url(#pca7375bbaf)" d="M 888.08714 292.575384 
L 888.08714 193.224254 
" style="fill:none;stroke:#1f77b4;stroke-width:1.5;"/>
    <path clip-path="url(#pca7375bbaf)" d="M 904.276695 247.556903 
L 904.276695 154.415219 
" style="fill:none;stroke:#1f77b4;stroke-width:1.5;"/>
    <path clip-path="url(#pca7375bbaf)" d="M 920.46625 256.871072 
L 920.46625 166.834111 
" style="fill:none;stroke:#1f77b4;stroke-width:1.5;"/>
    <path clip-path="url(#pca7375bbaf)" d="M 936.655805 222.719121 
L 936.655805 145.101051 
" style="fill:none;stroke:#1f77b4;stroke-width:1.5;"/>
    <path clip-path="url(#pca7375bbaf)" d="M 952.84536 247.556903 
L 952.84536 166.834111 
" style="fill:none;stroke:#1f77b4;stroke-width:1.5;"/>
    <path clip-path="url(#pca7375bbaf)" d="M 969.034915 216.509675 
L 969.034915 138.891605 
" style="fill:none;stroke:#1f77b4;stroke-width:1.5;"/>
    <path clip-path="url(#pca7375bbaf)" d="M 985.224471 283.261215 
L 985.224471 177.70064 
" style="fill:none;stroke:#1f77b4;stroke-width:1.5;"/>
    <path clip-path="url(#pca7375bbaf)" d="M 1001.414026 211.852591 
L 1001.414026 124.920353 
" style="fill:none;stroke:#1f77b4;stroke-width:1.5;"/>
    <path clip-path="url(#pca7375bbaf)" d="M 1017.603581 250.661626 
L 1017.603581 163.729388 
" style="fill:none;stroke:#1f77b4;stroke-width:1.5;"/>
    <path clip-path="url(#pca7375bbaf)" d="M 1033.793136 253.766349 
L 1033.793136 169.938833 
" style="fill:none;stroke:#1f77b4;stroke-width:1.5;"/>
    <path clip-path="url(#pca7375bbaf)" d="M 1049.982691 273.947047 
L 1049.982691 187.014809 
" style="fill:none;stroke:#1f77b4;stroke-width:1.5;"/>
    <path clip-path="url(#pca7375bbaf)" d="M 1066.172246 255.31871 
L 1066.172246 162.177026 
" style="fill:none;stroke:#1f77b4;stroke-width:1.5;"/>
    <path clip-path="url(#pca7375bbaf)" d="M 1082.361801 221.166759 
L 1082.361801 137.339244 
" style="fill:none;stroke:#1f77b4;stroke-width:1.5;"/>
    <path clip-path="url(#pca7375bbaf)" d="M 1098.551356 230.480928 
L 1098.551356 146.653412 
" style="fill:none;stroke:#1f77b4;stroke-width:1.5;"/>
    <path clip-path="url(#pca7375bbaf)" d="M 1114.740912 250.661626 
L 1114.740912 163.729388 
" style="fill:none;stroke:#1f77b4;stroke-width:1.5;"/>
    <path clip-path="url(#pca7375bbaf)" d="M 1130.930467 211.852591 
L 1130.930467 121.81563 
" style="fill:none;stroke:#1f77b4;stroke-width:1.5;"/>
    <path clip-path="url(#pca7375bbaf)" d="M 1147.120022 246.004542 
L 1147.120022 152.862858 
" style="fill:none;stroke:#1f77b4;stroke-width:1.5;"/>
    <path clip-path="url(#pca7375bbaf)" d="M 1163.309577 246.004542 
L 1163.309577 159.072304 
" style="fill:none;stroke:#1f77b4;stroke-width:1.5;"/>
    <path clip-path="url(#pca7375bbaf)" d="M 1179.499132 244.45218 
L 1179.499132 157.519942 
" style="fill:none;stroke:#1f77b4;stroke-width:1.5;"/>
    <path clip-path="url(#pca7375bbaf)" d="M 1195.688687 264.632879 
L 1195.688687 165.281749 
" style="fill:none;stroke:#1f77b4;stroke-width:1.5;"/>
    <path clip-path="url(#pca7375bbaf)" d="M 1211.878242 238.242735 
L 1211.878242 148.205774 
" style="fill:none;stroke:#1f77b4;stroke-width:1.5;"/>
    <path clip-path="url(#pca7375bbaf)" d="M 1228.067797 242.899819 
L 1228.067797 149.758135 
" style="fill:none;stroke:#1f77b4;stroke-width:1.5;"/>
    <path clip-path="url(#pca7375bbaf)" d="M 1244.257353 267.737601 
L 1244.257353 171.491195 
" style="fill:none;stroke:#1f77b4;stroke-width:1.5;"/>
    <path clip-path="url(#pca7375bbaf)" d="M 1260.446908 236.690373 
L 1260.446908 149.758135 
" style="fill:none;stroke:#1f77b4;stroke-width:1.5;"/>
    <path clip-path="url(#pca7375bbaf)" d="M 1276.636463 230.480928 
L 1276.636463 143.54869 
" style="fill:none;stroke:#1f77b4;stroke-width:1.5;"/>
    <path clip-path="url(#pca7375bbaf)" d="M 1292.826018 264.632879 
L 1292.826018 165.281749 
" style="fill:none;stroke:#1f77b4;stroke-width:1.5;"/>
    <path clip-path="url(#pca7375bbaf)" d="M 1309.015573 263.080517 
L 1309.015573 173.043556 
" style="fill:none;stroke:#1f77b4;stroke-width:1.5;"/>
    <path clip-path="url(#pca7375bbaf)" d="M 1325.205128 241.347458 
L 1325.205128 154.415219 
" style="fill:none;stroke:#1f77b4;stroke-width:1.5;"/>
    <path clip-path="url(#pca7375bbaf)" d="M 1341.394683 244.45218 
L 1341.394683 157.519942 
" style="fill:none;stroke:#1f77b4;stroke-width:1.5;"/>
    <path clip-path="url(#pca7375bbaf)" d="M 1357.584238 213.404953 
L 1357.584238 117.158546 
" style="fill:none;stroke:#1f77b4;stroke-width:1.5;"/>
    <path clip-path="url(#pca7375bbaf)" d="M 1373.773794 227.376205 
L 1373.773794 149.758135 
" style="fill:none;stroke:#1f77b4;stroke-width:1.5;"/>
    <path clip-path="url(#pca7375bbaf)" d="M 1389.963349 258.423433 
L 1389.963349 168.386472 
" style="fill:none;stroke:#1f77b4;stroke-width:1.5;"/>
    <path clip-path="url(#pca7375bbaf)" d="M 1406.152904 259.975794 
L 1406.152904 166.834111 
" style="fill:none;stroke:#1f77b4;stroke-width:1.5;"/>
    <path clip-path="url(#pca7375bbaf)" d="M 1422.342459 232.033289 
L 1422.342459 135.786883 
" style="fill:none;stroke:#1f77b4;stroke-width:1.5;"/>
    <path clip-path="url(#pca7375bbaf)" d="M 1438.532014 211.852591 
L 1438.532014 124.920353 
" style="fill:none;stroke:#1f77b4;stroke-width:1.5;"/>
    <path clip-path="url(#pca7375bbaf)" d="M 1454.721569 244.45218 
L 1454.721569 157.519942 
" style="fill:none;stroke:#1f77b4;stroke-width:1.5;"/>
    <path clip-path="url(#pca7375bbaf)" d="M 1470.911124 224.271482 
L 1470.911124 131.129799 
" style="fill:none;stroke:#1f77b4;stroke-width:1.5;"/>
    <path clip-path="url(#pca7375bbaf)" d="M 1487.100679 250.661626 
L 1487.100679 151.310497 
" style="fill:none;stroke:#1f77b4;stroke-width:1.5;"/>
    <path clip-path="url(#pca7375bbaf)" d="M 1503.290235 249.109265 
L 1503.290235 155.967581 
" style="fill:none;stroke:#1f77b4;stroke-width:1.5;"/>
    <path clip-path="url(#pca7375bbaf)" d="M 1519.47979 228.928566 
L 1519.47979 129.577437 
" style="fill:none;stroke:#1f77b4;stroke-width:1.5;"/>
    <path clip-path="url(#pca7375bbaf)" d="M 1535.669345 214.957314 
L 1535.669345 128.025076 
" style="fill:none;stroke:#1f77b4;stroke-width:1.5;"/>
    <path clip-path="url(#pca7375bbaf)" d="M 1551.8589 219.614398 
L 1551.8589 132.68216 
" style="fill:none;stroke:#1f77b4;stroke-width:1.5;"/>
    <path clip-path="url(#pca7375bbaf)" d="M 1568.048455 261.528156 
L 1568.048455 165.281749 
" style="fill:none;stroke:#1f77b4;stroke-width:1.5;"/>
    <path clip-path="url(#pca7375bbaf)" d="M 1584.23801 218.062037 
L 1584.23801 118.710907 
" style="fill:none;stroke:#1f77b4;stroke-width:1.5;"/>
    <path clip-path="url(#pca7375bbaf)" d="M 1600.427565 267.737601 
L 1600.427565 165.281749 
" style="fill:none;stroke:#1f77b4;stroke-width:1.5;"/>
    <path clip-path="url(#pca7375bbaf)" d="M 1616.61712 222.719121 
L 1616.61712 135.786883 
" style="fill:none;stroke:#1f77b4;stroke-width:1.5;"/>
    <path clip-path="url(#pca7375bbaf)" d="M 1632.806676 196.328977 
L 1632.806676 112.501462 
" style="fill:none;stroke:#1f77b4;stroke-width:1.5;"/>
    <path clip-path="url(#pca7375bbaf)" d="M 1648.996231 204.090784 
L 1648.996231 117.158546 
" style="fill:none;stroke:#1f77b4;stroke-width:1.5;"/>
    <path clip-path="url(#pca7375bbaf)" d="M 1665.185786 196.328977 
L 1665.185786 109.396739 
" style="fill:none;stroke:#1f77b4;stroke-width:1.5;"/>
    <path clip-path="url(#pca7375bbaf)" d="M 1681.375341 180.805363 
L 1681.375341 93.873125 
" style="fill:none;stroke:#1f77b4;stroke-width:1.5;"/>
   </g>
   <g id="line2d_33">
    <defs>
     <path d="M 0 6 
C 1.591219 6 3.117479 5.367802 4.242641 4.242641 
C 5.367802 3.117479 6 1.591219 6 0 
C 6 -1.591219 5.367802 -3.117479 4.242641 -4.242641 
C 3.117479 -5.367802 1.591219 -6 0 -6 
C -1.591219 -6 -3.117479 -5.367802 -4.242641 -4.242641 
C -5.367802 -3.117479 -6 -1.591219 -6 0 
C -6 1.591219 -5.367802 3.117479 -4.242641 4.242641 
C -3.117479 5.367802 -1.591219 6 0 6 
z
" id="md63bb243cf" style="stroke:#1f77b4;"/>
    </defs>
    <g clip-path="url(#pca7375bbaf)">
     <use style="fill:#1f77b4;stroke:#1f77b4;" x="159.557159" xlink:href="#md63bb243cf" y="825.035343"/>
     <use style="fill:#1f77b4;stroke:#1f77b4;" x="175.746714" xlink:href="#md63bb243cf" y="705.503515"/>
     <use style="fill:#1f77b4;stroke:#1f77b4;" x="191.936269" xlink:href="#md63bb243cf" y="590.628772"/>
     <use style="fill:#1f77b4;stroke:#1f77b4;" x="208.125824" xlink:href="#md63bb243cf" y="654.275589"/>
     <use style="fill:#1f77b4;stroke:#1f77b4;" x="224.31538" xlink:href="#md63bb243cf" y="509.905979"/>
     <use style="fill:#1f77b4;stroke:#1f77b4;" x="240.504935" xlink:href="#md63bb243cf" y="500.591811"/>
     <use style="fill:#1f77b4;stroke:#1f77b4;" x="256.69449" xlink:href="#md63bb243cf" y="416.764295"/>
     <use style="fill:#1f77b4;stroke:#1f77b4;" x="272.884045" xlink:href="#md63bb243cf" y="365.536369"/>
     <use style="fill:#1f77b4;stroke:#1f77b4;" x="289.0736" xlink:href="#md63bb243cf" y="363.984008"/>
     <use style="fill:#1f77b4;stroke:#1f77b4;" x="305.263155" xlink:href="#md63bb243cf" y="309.651359"/>
     <use style="fill:#1f77b4;stroke:#1f77b4;" x="321.45271" xlink:href="#md63bb243cf" y="312.756082"/>
     <use style="fill:#1f77b4;stroke:#1f77b4;" x="337.642265" xlink:href="#md63bb243cf" y="360.879285"/>
     <use style="fill:#1f77b4;stroke:#1f77b4;" x="353.831821" xlink:href="#md63bb243cf" y="272.394686"/>
     <use style="fill:#1f77b4;stroke:#1f77b4;" x="370.021376" xlink:href="#md63bb243cf" y="291.023022"/>
     <use style="fill:#1f77b4;stroke:#1f77b4;" x="386.210931" xlink:href="#md63bb243cf" y="277.05177"/>
     <use style="fill:#1f77b4;stroke:#1f77b4;" x="402.400486" xlink:href="#md63bb243cf" y="267.737601"/>
     <use style="fill:#1f77b4;stroke:#1f77b4;" x="418.590041" xlink:href="#md63bb243cf" y="280.156493"/>
     <use style="fill:#1f77b4;stroke:#1f77b4;" x="434.779596" xlink:href="#md63bb243cf" y="266.18524"/>
     <use style="fill:#1f77b4;stroke:#1f77b4;" x="450.969151" xlink:href="#md63bb243cf" y="263.080517"/>
     <use style="fill:#1f77b4;stroke:#1f77b4;" x="467.158706" xlink:href="#md63bb243cf" y="244.45218"/>
     <use style="fill:#1f77b4;stroke:#1f77b4;" x="483.348262" xlink:href="#md63bb243cf" y="289.470661"/>
     <use style="fill:#1f77b4;stroke:#1f77b4;" x="499.537817" xlink:href="#md63bb243cf" y="269.289963"/>
     <use style="fill:#1f77b4;stroke:#1f77b4;" x="515.727372" xlink:href="#md63bb243cf" y="242.899819"/>
     <use style="fill:#1f77b4;stroke:#1f77b4;" x="531.916927" xlink:href="#md63bb243cf" y="266.18524"/>
     <use style="fill:#1f77b4;stroke:#1f77b4;" x="548.106482" xlink:href="#md63bb243cf" y="214.957314"/>
     <use style="fill:#1f77b4;stroke:#1f77b4;" x="564.296037" xlink:href="#md63bb243cf" y="204.090784"/>
     <use style="fill:#1f77b4;stroke:#1f77b4;" x="580.485592" xlink:href="#md63bb243cf" y="222.719121"/>
     <use style="fill:#1f77b4;stroke:#1f77b4;" x="596.675147" xlink:href="#md63bb243cf" y="214.957314"/>
     <use style="fill:#1f77b4;stroke:#1f77b4;" x="612.864703" xlink:href="#md63bb243cf" y="197.881339"/>
     <use style="fill:#1f77b4;stroke:#1f77b4;" x="629.054258" xlink:href="#md63bb243cf" y="190.119532"/>
     <use style="fill:#1f77b4;stroke:#1f77b4;" x="645.243813" xlink:href="#md63bb243cf" y="236.690373"/>
     <use style="fill:#1f77b4;stroke:#1f77b4;" x="661.433368" xlink:href="#md63bb243cf" y="244.45218"/>
     <use style="fill:#1f77b4;stroke:#1f77b4;" x="677.622923" xlink:href="#md63bb243cf" y="252.213987"/>
     <use style="fill:#1f77b4;stroke:#1f77b4;" x="693.812478" xlink:href="#md63bb243cf" y="228.928566"/>
     <use style="fill:#1f77b4;stroke:#1f77b4;" x="710.002033" xlink:href="#md63bb243cf" y="207.195507"/>
     <use style="fill:#1f77b4;stroke:#1f77b4;" x="726.191588" xlink:href="#md63bb243cf" y="204.090784"/>
     <use style="fill:#1f77b4;stroke:#1f77b4;" x="742.381144" xlink:href="#md63bb243cf" y="207.195507"/>
     <use style="fill:#1f77b4;stroke:#1f77b4;" x="758.570699" xlink:href="#md63bb243cf" y="233.585651"/>
     <use style="fill:#1f77b4;stroke:#1f77b4;" x="774.760254" xlink:href="#md63bb243cf" y="250.661626"/>
     <use style="fill:#1f77b4;stroke:#1f77b4;" x="790.949809" xlink:href="#md63bb243cf" y="225.823844"/>
     <use style="fill:#1f77b4;stroke:#1f77b4;" x="807.139364" xlink:href="#md63bb243cf" y="208.747868"/>
     <use style="fill:#1f77b4;stroke:#1f77b4;" x="823.328919" xlink:href="#md63bb243cf" y="211.852591"/>
     <use style="fill:#1f77b4;stroke:#1f77b4;" x="839.518474" xlink:href="#md63bb243cf" y="222.719121"/>
     <use style="fill:#1f77b4;stroke:#1f77b4;" x="855.708029" xlink:href="#md63bb243cf" y="210.30023"/>
     <use style="fill:#1f77b4;stroke:#1f77b4;" x="871.897585" xlink:href="#md63bb243cf" y="155.967581"/>
     <use style="fill:#1f77b4;stroke:#1f77b4;" x="888.08714" xlink:href="#md63bb243cf" y="242.899819"/>
     <use style="fill:#1f77b4;stroke:#1f77b4;" x="904.276695" xlink:href="#md63bb243cf" y="200.986061"/>
     <use style="fill:#1f77b4;stroke:#1f77b4;" x="920.46625" xlink:href="#md63bb243cf" y="211.852591"/>
     <use style="fill:#1f77b4;stroke:#1f77b4;" x="936.655805" xlink:href="#md63bb243cf" y="183.910086"/>
     <use style="fill:#1f77b4;stroke:#1f77b4;" x="952.84536" xlink:href="#md63bb243cf" y="207.195507"/>
     <use style="fill:#1f77b4;stroke:#1f77b4;" x="969.034915" xlink:href="#md63bb243cf" y="177.70064"/>
     <use style="fill:#1f77b4;stroke:#1f77b4;" x="985.224471" xlink:href="#md63bb243cf" y="230.480928"/>
     <use style="fill:#1f77b4;stroke:#1f77b4;" x="1001.414026" xlink:href="#md63bb243cf" y="168.386472"/>
     <use style="fill:#1f77b4;stroke:#1f77b4;" x="1017.603581" xlink:href="#md63bb243cf" y="207.195507"/>
     <use style="fill:#1f77b4;stroke:#1f77b4;" x="1033.793136" xlink:href="#md63bb243cf" y="211.852591"/>
     <use style="fill:#1f77b4;stroke:#1f77b4;" x="1049.982691" xlink:href="#md63bb243cf" y="230.480928"/>
     <use style="fill:#1f77b4;stroke:#1f77b4;" x="1066.172246" xlink:href="#md63bb243cf" y="208.747868"/>
     <use style="fill:#1f77b4;stroke:#1f77b4;" x="1082.361801" xlink:href="#md63bb243cf" y="179.253002"/>
     <use style="fill:#1f77b4;stroke:#1f77b4;" x="1098.551356" xlink:href="#md63bb243cf" y="188.56717"/>
     <use style="fill:#1f77b4;stroke:#1f77b4;" x="1114.740912" xlink:href="#md63bb243cf" y="207.195507"/>
     <use style="fill:#1f77b4;stroke:#1f77b4;" x="1130.930467" xlink:href="#md63bb243cf" y="166.834111"/>
     <use style="fill:#1f77b4;stroke:#1f77b4;" x="1147.120022" xlink:href="#md63bb243cf" y="199.4337"/>
     <use style="fill:#1f77b4;stroke:#1f77b4;" x="1163.309577" xlink:href="#md63bb243cf" y="202.538423"/>
     <use style="fill:#1f77b4;stroke:#1f77b4;" x="1179.499132" xlink:href="#md63bb243cf" y="200.986061"/>
     <use style="fill:#1f77b4;stroke:#1f77b4;" x="1195.688687" xlink:href="#md63bb243cf" y="214.957314"/>
     <use style="fill:#1f77b4;stroke:#1f77b4;" x="1211.878242" xlink:href="#md63bb243cf" y="193.224254"/>
     <use style="fill:#1f77b4;stroke:#1f77b4;" x="1228.067797" xlink:href="#md63bb243cf" y="196.328977"/>
     <use style="fill:#1f77b4;stroke:#1f77b4;" x="1244.257353" xlink:href="#md63bb243cf" y="219.614398"/>
     <use style="fill:#1f77b4;stroke:#1f77b4;" x="1260.446908" xlink:href="#md63bb243cf" y="193.224254"/>
     <use style="fill:#1f77b4;stroke:#1f77b4;" x="1276.636463" xlink:href="#md63bb243cf" y="187.014809"/>
     <use style="fill:#1f77b4;stroke:#1f77b4;" x="1292.826018" xlink:href="#md63bb243cf" y="214.957314"/>
     <use style="fill:#1f77b4;stroke:#1f77b4;" x="1309.015573" xlink:href="#md63bb243cf" y="218.062037"/>
     <use style="fill:#1f77b4;stroke:#1f77b4;" x="1325.205128" xlink:href="#md63bb243cf" y="197.881339"/>
     <use style="fill:#1f77b4;stroke:#1f77b4;" x="1341.394683" xlink:href="#md63bb243cf" y="200.986061"/>
     <use style="fill:#1f77b4;stroke:#1f77b4;" x="1357.584238" xlink:href="#md63bb243cf" y="165.281749"/>
     <use style="fill:#1f77b4;stroke:#1f77b4;" x="1373.773794" xlink:href="#md63bb243cf" y="188.56717"/>
     <use style="fill:#1f77b4;stroke:#1f77b4;" x="1389.963349" xlink:href="#md63bb243cf" y="213.404953"/>
     <use style="fill:#1f77b4;stroke:#1f77b4;" x="1406.152904" xlink:href="#md63bb243cf" y="213.404953"/>
     <use style="fill:#1f77b4;stroke:#1f77b4;" x="1422.342459" xlink:href="#md63bb243cf" y="183.910086"/>
     <use style="fill:#1f77b4;stroke:#1f77b4;" x="1438.532014" xlink:href="#md63bb243cf" y="168.386472"/>
     <use style="fill:#1f77b4;stroke:#1f77b4;" x="1454.721569" xlink:href="#md63bb243cf" y="200.986061"/>
     <use style="fill:#1f77b4;stroke:#1f77b4;" x="1470.911124" xlink:href="#md63bb243cf" y="177.70064"/>
     <use style="fill:#1f77b4;stroke:#1f77b4;" x="1487.100679" xlink:href="#md63bb243cf" y="200.986061"/>
     <use style="fill:#1f77b4;stroke:#1f77b4;" x="1503.290235" xlink:href="#md63bb243cf" y="202.538423"/>
     <use style="fill:#1f77b4;stroke:#1f77b4;" x="1519.47979" xlink:href="#md63bb243cf" y="179.253002"/>
     <use style="fill:#1f77b4;stroke:#1f77b4;" x="1535.669345" xlink:href="#md63bb243cf" y="171.491195"/>
     <use style="fill:#1f77b4;stroke:#1f77b4;" x="1551.8589" xlink:href="#md63bb243cf" y="176.148279"/>
     <use style="fill:#1f77b4;stroke:#1f77b4;" x="1568.048455" xlink:href="#md63bb243cf" y="213.404953"/>
     <use style="fill:#1f77b4;stroke:#1f77b4;" x="1584.23801" xlink:href="#md63bb243cf" y="168.386472"/>
     <use style="fill:#1f77b4;stroke:#1f77b4;" x="1600.427565" xlink:href="#md63bb243cf" y="216.509675"/>
     <use style="fill:#1f77b4;stroke:#1f77b4;" x="1616.61712" xlink:href="#md63bb243cf" y="179.253002"/>
     <use style="fill:#1f77b4;stroke:#1f77b4;" x="1632.806676" xlink:href="#md63bb243cf" y="154.415219"/>
     <use style="fill:#1f77b4;stroke:#1f77b4;" x="1648.996231" xlink:href="#md63bb243cf" y="160.624665"/>
     <use style="fill:#1f77b4;stroke:#1f77b4;" x="1665.185786" xlink:href="#md63bb243cf" y="152.862858"/>
     <use style="fill:#1f77b4;stroke:#1f77b4;" x="1681.375341" xlink:href="#md63bb243cf" y="137.339244"/>
    </g>
   </g>
   <g id="patch_3">
    <path d="M 83.46625 887.673125 
L 83.46625 56.073125 
" style="fill:none;stroke:#000000;stroke-linecap:square;stroke-linejoin:miter;stroke-width:0.8;"/>
   </g>
   <g id="patch_4">
    <path d="M 1757.46625 887.673125 
L 1757.46625 56.073125 
" style="fill:none;stroke:#000000;stroke-linecap:square;stroke-linejoin:miter;stroke-width:0.8;"/>
   </g>
   <g id="patch_5">
    <path d="M 83.46625 887.673125 
L 1757.46625 887.673125 
" style="fill:none;stroke:#000000;stroke-linecap:square;stroke-linejoin:miter;stroke-width:0.8;"/>
   </g>
   <g id="patch_6">
    <path d="M 83.46625 56.073125 
L 1757.46625 56.073125 
" style="fill:none;stroke:#000000;stroke-linecap:square;stroke-linejoin:miter;stroke-width:0.8;"/>
   </g>
   <g id="text_28">
    <!-- K-Means Performance on Cancer Data -->
    <g transform="translate(609.76625 49.418125)scale(0.32 -0.32)">
     <defs>
      <path d="M 1581 331 
L 2163 331 
Q 3072 331 3558 850 
Q 4044 1369 4044 2338 
Q 4044 3306 3559 3818 
Q 3075 4331 2163 4331 
L 1581 4331 
L 1581 331 
z
M 353 0 
L 353 331 
L 947 331 
L 947 4331 
L 353 4331 
L 353 4666 
L 2209 4666 
Q 3416 4666 4089 4050 
Q 4763 3434 4763 2338 
Q 4763 1238 4088 619 
Q 3413 0 2209 0 
L 353 0 
z
" id="DejaVuSerif-44" transform="scale(0.015625)"/>
     </defs>
     <use xlink:href="#DejaVuSerif-4b"/>
     <use x="67.457031" xlink:href="#DejaVuSerif-2d"/>
     <use x="101.246094" xlink:href="#DejaVuSerif-4d"/>
     <use x="203.638672" xlink:href="#DejaVuSerif-65"/>
     <use x="262.818359" xlink:href="#DejaVuSerif-61"/>
     <use x="322.4375" xlink:href="#DejaVuSerif-6e"/>
     <use x="386.841797" xlink:href="#DejaVuSerif-73"/>
     <use x="438.160156" xlink:href="#DejaVuSerif-20"/>
     <use x="469.947266" xlink:href="#DejaVuSerif-50"/>
     <use x="532.732422" xlink:href="#DejaVuSerif-65"/>
     <use x="591.912109" xlink:href="#DejaVuSerif-72"/>
     <use x="639.714844" xlink:href="#DejaVuSerif-66"/>
     <use x="676.726562" xlink:href="#DejaVuSerif-6f"/>
     <use x="736.931641" xlink:href="#DejaVuSerif-72"/>
     <use x="784.734375" xlink:href="#DejaVuSerif-6d"/>
     <use x="879.558594" xlink:href="#DejaVuSerif-61"/>
     <use x="939.177734" xlink:href="#DejaVuSerif-6e"/>
     <use x="1003.582031" xlink:href="#DejaVuSerif-63"/>
     <use x="1059.587891" xlink:href="#DejaVuSerif-65"/>
     <use x="1118.767578" xlink:href="#DejaVuSerif-20"/>
     <use x="1150.554688" xlink:href="#DejaVuSerif-6f"/>
     <use x="1210.759766" xlink:href="#DejaVuSerif-6e"/>
     <use x="1275.164062" xlink:href="#DejaVuSerif-20"/>
     <use x="1306.951172" xlink:href="#DejaVuSerif-43"/>
     <use x="1383.464844" xlink:href="#DejaVuSerif-61"/>
     <use x="1443.083984" xlink:href="#DejaVuSerif-6e"/>
     <use x="1507.488281" xlink:href="#DejaVuSerif-63"/>
     <use x="1563.494141" xlink:href="#DejaVuSerif-65"/>
     <use x="1622.673828" xlink:href="#DejaVuSerif-72"/>
     <use x="1670.476562" xlink:href="#DejaVuSerif-20"/>
     <use x="1702.263672" xlink:href="#DejaVuSerif-44"/>
     <use x="1782.439453" xlink:href="#DejaVuSerif-61"/>
     <use x="1842.058594" xlink:href="#DejaVuSerif-74"/>
     <use x="1882.244141" xlink:href="#DejaVuSerif-61"/>
    </g>
   </g>
  </g>
 </g>
 <defs>
  <clipPath id="pca7375bbaf">
   <rect height="831.6" width="1674" x="83.46625" y="56.073125"/>
  </clipPath>
 </defs>
</svg>
